# xmcd
#
# Track frame offsets: 
#        150
#        23976
#        45396
#        68675
#        97507
#        138156
#        153341
#        172687
#        200791
#        215605
#        230069
#
# Disc length: 3367 seconds
#
# Revision: 0
# Processed by: cddbd v1.5.2PL0 Copyright (c) Steve Scherf et al.
# Submitted via: ExactAudioCopy v0.95b4
#
DISCID=880d250b
DTITLE=Lawrence Hammond - Presumed Lost (Rec. Feb 1975 - March 1977) (
DTITLE=Shagrat Nov 2012)
DYEAR=2012
DGENRE=Country
TTITLE0=Red-Dirt Texas Fiddler
TTITLE1=Nevada McCloud
TTITLE2=Papa Redwing Blackbird
TTITLE3=Little Britches
TTITLE4=West Texas Border Patrol
TTITLE5=John Deere Tractor
TTITLE6=Love For The Hunter
TTITLE7=The Heavenly Saga Of Flight 641
TTITLE8=Pale Moon On The Pecos
TTITLE9=Lone Star Blues
TTITLE10=Tumbleweed Plantation
EXTD=
EXTT0=
EXTT1=
EXTT2=
EXTT3=
EXTT4=
EXTT5=
EXTT6=
EXTT7=
EXTT8=
EXTT9=
EXTT10=
PLAYORDER=
